<?xml version="1.0" encoding="utf-8"?>
<!-- Generator: Adobe Illustrator 24.0.3, SVG Export Plug-In . SVG Version: 6.00 Build 0)  -->
<svg version="1.1" id="Ebene_1" xmlns="http://www.w3.org/2000/svg" xmlns:xlink="http://www.w3.org/1999/xlink" x="0px" y="0px"
	 viewBox="0 0 500 500" style="enable-background:new 0 0 500 500;" xml:space="preserve">
<style type="text/css">
	.st0{fill:#FF2505;}
</style>
<g id="Ebene_1_1_">
</g>
<g id="Layer_1">
	<path class="st0" d="M492.6,113.5c-0.1-0.2-0.2-0.4-0.3-0.7c-0.2-0.4-0.3-0.8-0.5-1.2c-0.1-0.3-0.4-0.5-0.5-0.7
		c-0.2-0.3-0.4-0.6-0.7-0.9c-0.2-0.2-0.5-0.4-0.8-0.6s-0.5-0.5-0.9-0.7l0,0l0,0l-94-54.1c-2.4-1.4-5.4-1.4-7.8,0l-94,54.1l0,0l0,0
		c-0.3,0.2-0.6,0.4-0.9,0.7c-0.3,0.2-0.5,0.4-0.8,0.6c-0.3,0.3-0.5,0.6-0.7,0.9c-0.2,0.2-0.4,0.4-0.5,0.7c-0.2,0.4-0.4,0.8-0.5,1.2
		c-0.1,0.2-0.2,0.4-0.3,0.7c-0.2,0.7-0.3,1.3-0.3,2v102.8l-78.3,45.1V62.3c0-0.7-0.1-1.4-0.3-2c-0.1-0.2-0.2-0.4-0.3-0.7
		c-0.2-0.4-0.3-0.8-0.5-1.2c-0.1-0.3-0.4-0.5-0.5-0.7c-0.2-0.3-0.4-0.6-0.7-0.9c-0.2-0.2-0.5-0.4-0.8-0.6c-0.3-0.2-0.5-0.5-0.9-0.7
		l0,0l0,0l-94-54.1c-2.4-1.4-5.4-1.4-7.8,0L11,55.5l0,0l0,0c-0.3,0.2-0.6,0.4-0.9,0.7c-0.3,0.2-0.5,0.4-0.8,0.6
		c-0.3,0.3-0.5,0.6-0.7,0.9c-0.2,0.2-0.4,0.4-0.5,0.7c-0.2,0.4-0.4,0.8-0.5,1.2c-0.1,0.2-0.2,0.4-0.3,0.7C7.1,61,7,61.6,7,62.3v322
		c0,2.8,1.5,5.4,3.9,6.8l188,108.2c0.4,0.2,0.9,0.4,1.3,0.5c0.2,0.1,0.4,0.2,0.6,0.3c0.7,0.2,1.3,0.3,2,0.3s1.4-0.1,2-0.3
		c0.2,0,0.3-0.2,0.5-0.2c0.5-0.2,0.9-0.3,1.4-0.6l188-108.2c2.4-1.4,3.9-4,3.9-6.8V281.5l90.1-51.9c2.4-1.4,3.9-4,3.9-6.8V115.5
		C492.9,114.8,492.8,114.1,492.6,113.5z M203,375.3L124.8,331l82.1-47.3l0,0l90.1-51.9l78.3,45.1l-57.4,32.8L203,375.3z
		 M383.2,174.2v89.2l-32.9-18.9l-45.4-26.2v-89.2l32.9,18.9L383.2,174.2z M391,70.4l78.3,45.1L391,160.6l-78.3-45.1L391,70.4z
		 M149.7,298.6l-32.9,18.9V121l45.4-26.2l32.9-18.9v196.6L149.7,298.6z M109,17.2l78.3,45.1L109,107.4L30.7,62.3L109,17.2z
		 M22.8,75.9l32.9,18.9l45.4,26.2v210.1l0,0l0,0c0,0.3,0.1,0.6,0.1,0.9c0,0.4,0.1,0.8,0.2,1.1l0,0c0.1,0.3,0.2,0.6,0.4,0.9
		c0.1,0.3,0.2,0.7,0.4,1l0,0c0.2,0.3,0.4,0.5,0.6,0.8s0.4,0.6,0.6,0.8l0,0c0.2,0.2,0.5,0.4,0.7,0.6c0.3,0.2,0.5,0.5,0.8,0.7l0,0l0,0
		l90,51V479L22.8,379.7V75.9L22.8,75.9z M383.2,379.7L210.8,479v-90.1L338.5,316l44.7-25.5V379.7z M477.2,218.3l-78.3,45.1v-89.2
		l45.4-26.2l32.9-18.9V218.3z"/>
</g>
</svg>
